<mxfile host="app.diagrams.net" agent="Mozilla/5.0 (X11; Linux x86_64) AppleWebKit/537.36 (KHTML, like Gecko) Chrome/129.0.0.0 Safari/537.36" version="24.7.17">
  <diagram name="Page-1" id="099fd60b-425b-db50-ffb0-6b813814b670">
    <mxGraphModel dx="1719" dy="516" grid="1" gridSize="10" guides="1" tooltips="1" connect="1" arrows="1" fold="1" page="1" pageScale="1" pageWidth="850" pageHeight="1100" background="none" math="0" shadow="0">
      <root>
        <mxCell id="0" />
        <mxCell id="1" parent="0" />
        <mxCell id="grKQh754Aq8ZdUfQPDiJ-1" value="&lt;h2&gt;arduino nano v3&lt;/h2&gt;" style="rounded=0;whiteSpace=wrap;html=1;horizontal=1;verticalAlign=top;" vertex="1" parent="1">
          <mxGeometry x="280" y="280" width="320" height="360" as="geometry" />
        </mxCell>
        <mxCell id="grKQh754Aq8ZdUfQPDiJ-3" value="" style="endArrow=none;html=1;rounded=0;exitX=0.5;exitY=0;exitDx=0;exitDy=0;entryX=0.5;entryY=1;entryDx=0;entryDy=0;" edge="1" parent="1" source="grKQh754Aq8ZdUfQPDiJ-1" target="grKQh754Aq8ZdUfQPDiJ-4">
          <mxGeometry width="50" height="50" relative="1" as="geometry">
            <mxPoint x="430" y="250" as="sourcePoint" />
            <mxPoint x="480" y="200" as="targetPoint" />
          </mxGeometry>
        </mxCell>
        <mxCell id="grKQh754Aq8ZdUfQPDiJ-4" value="&lt;h2&gt;pc(minicom/putty)&lt;/h2&gt;" style="rounded=0;whiteSpace=wrap;html=1;verticalAlign=top;" vertex="1" parent="1">
          <mxGeometry x="320" y="70" width="240" height="120" as="geometry" />
        </mxCell>
        <mxCell id="grKQh754Aq8ZdUfQPDiJ-5" value="d13" style="endArrow=none;html=1;rounded=0;" edge="1" parent="1">
          <mxGeometry y="10" width="50" height="50" relative="1" as="geometry">
            <mxPoint x="240" y="320" as="sourcePoint" />
            <mxPoint x="280" y="320" as="targetPoint" />
            <mxPoint as="offset" />
          </mxGeometry>
        </mxCell>
        <mxCell id="grKQh754Aq8ZdUfQPDiJ-6" value="3v3" style="endArrow=none;html=1;rounded=0;" edge="1" parent="1">
          <mxGeometry x="0.6667" y="10" width="50" height="50" relative="1" as="geometry">
            <mxPoint x="160" y="340" as="sourcePoint" />
            <mxPoint x="280" y="340" as="targetPoint" />
            <mxPoint as="offset" />
          </mxGeometry>
        </mxCell>
        <mxCell id="grKQh754Aq8ZdUfQPDiJ-7" value="ref" style="endArrow=none;html=1;rounded=0;" edge="1" parent="1">
          <mxGeometry y="10" width="50" height="50" relative="1" as="geometry">
            <mxPoint x="240" y="360" as="sourcePoint" />
            <mxPoint x="280" y="360" as="targetPoint" />
            <mxPoint as="offset" />
          </mxGeometry>
        </mxCell>
        <mxCell id="grKQh754Aq8ZdUfQPDiJ-8" value="a0" style="endArrow=none;html=1;rounded=0;" edge="1" parent="1">
          <mxGeometry y="10" width="50" height="50" relative="1" as="geometry">
            <mxPoint x="240" y="380" as="sourcePoint" />
            <mxPoint x="280" y="380" as="targetPoint" />
            <mxPoint as="offset" />
          </mxGeometry>
        </mxCell>
        <mxCell id="grKQh754Aq8ZdUfQPDiJ-9" value="a1" style="endArrow=none;html=1;rounded=0;" edge="1" parent="1">
          <mxGeometry y="10" width="50" height="50" relative="1" as="geometry">
            <mxPoint x="240" y="400" as="sourcePoint" />
            <mxPoint x="280" y="400" as="targetPoint" />
            <mxPoint as="offset" />
          </mxGeometry>
        </mxCell>
        <mxCell id="grKQh754Aq8ZdUfQPDiJ-10" value="a2" style="endArrow=none;html=1;rounded=0;" edge="1" parent="1">
          <mxGeometry y="10" width="50" height="50" relative="1" as="geometry">
            <mxPoint x="240" y="420" as="sourcePoint" />
            <mxPoint x="280" y="420" as="targetPoint" />
            <mxPoint as="offset" />
          </mxGeometry>
        </mxCell>
        <mxCell id="grKQh754Aq8ZdUfQPDiJ-11" value="a3" style="endArrow=none;html=1;rounded=0;" edge="1" parent="1">
          <mxGeometry y="10" width="50" height="50" relative="1" as="geometry">
            <mxPoint x="240" y="440" as="sourcePoint" />
            <mxPoint x="280" y="440" as="targetPoint" />
            <mxPoint as="offset" />
          </mxGeometry>
        </mxCell>
        <mxCell id="grKQh754Aq8ZdUfQPDiJ-12" value="a4" style="endArrow=none;html=1;rounded=0;" edge="1" parent="1">
          <mxGeometry y="10" width="50" height="50" relative="1" as="geometry">
            <mxPoint x="240" y="460" as="sourcePoint" />
            <mxPoint x="280" y="460" as="targetPoint" />
            <mxPoint as="offset" />
          </mxGeometry>
        </mxCell>
        <mxCell id="grKQh754Aq8ZdUfQPDiJ-14" value="a5" style="endArrow=none;html=1;rounded=0;" edge="1" parent="1">
          <mxGeometry y="10" width="50" height="50" relative="1" as="geometry">
            <mxPoint x="240" y="480" as="sourcePoint" />
            <mxPoint x="280" y="480" as="targetPoint" />
            <mxPoint as="offset" />
          </mxGeometry>
        </mxCell>
        <mxCell id="grKQh754Aq8ZdUfQPDiJ-15" value="a6" style="endArrow=none;html=1;rounded=0;" edge="1" parent="1">
          <mxGeometry y="10" width="50" height="50" relative="1" as="geometry">
            <mxPoint x="240" y="500" as="sourcePoint" />
            <mxPoint x="280" y="500" as="targetPoint" />
            <mxPoint as="offset" />
          </mxGeometry>
        </mxCell>
        <mxCell id="grKQh754Aq8ZdUfQPDiJ-16" value="a7" style="endArrow=none;html=1;rounded=0;" edge="1" parent="1">
          <mxGeometry y="10" width="50" height="50" relative="1" as="geometry">
            <mxPoint x="240" y="520" as="sourcePoint" />
            <mxPoint x="280" y="520" as="targetPoint" />
            <mxPoint as="offset" />
          </mxGeometry>
        </mxCell>
        <mxCell id="grKQh754Aq8ZdUfQPDiJ-17" value="5v" style="endArrow=none;html=1;rounded=0;" edge="1" parent="1">
          <mxGeometry y="10" width="50" height="50" relative="1" as="geometry">
            <mxPoint x="240" y="540" as="sourcePoint" />
            <mxPoint x="280" y="540" as="targetPoint" />
            <mxPoint as="offset" />
          </mxGeometry>
        </mxCell>
        <mxCell id="grKQh754Aq8ZdUfQPDiJ-18" value="rst" style="endArrow=none;html=1;rounded=0;" edge="1" parent="1">
          <mxGeometry y="10" width="50" height="50" relative="1" as="geometry">
            <mxPoint x="240" y="560" as="sourcePoint" />
            <mxPoint x="280" y="560" as="targetPoint" />
            <mxPoint as="offset" />
          </mxGeometry>
        </mxCell>
        <mxCell id="grKQh754Aq8ZdUfQPDiJ-19" value="gnd" style="endArrow=none;html=1;rounded=0;" edge="1" parent="1">
          <mxGeometry y="10" width="50" height="50" relative="1" as="geometry">
            <mxPoint x="240" y="580" as="sourcePoint" />
            <mxPoint x="280" y="580" as="targetPoint" />
            <mxPoint as="offset" />
          </mxGeometry>
        </mxCell>
        <mxCell id="grKQh754Aq8ZdUfQPDiJ-20" value="vin" style="endArrow=none;html=1;rounded=0;" edge="1" parent="1">
          <mxGeometry y="10" width="50" height="50" relative="1" as="geometry">
            <mxPoint x="200" y="600" as="sourcePoint" />
            <mxPoint x="280" y="600" as="targetPoint" />
            <mxPoint as="offset" />
          </mxGeometry>
        </mxCell>
        <mxCell id="grKQh754Aq8ZdUfQPDiJ-21" value="d12" style="endArrow=none;html=1;rounded=0;exitX=1;exitY=0.11;exitDx=0;exitDy=0;exitPerimeter=0;" edge="1" parent="1" source="grKQh754Aq8ZdUfQPDiJ-1">
          <mxGeometry y="10" width="50" height="50" relative="1" as="geometry">
            <mxPoint x="600" y="319.58" as="sourcePoint" />
            <mxPoint x="640" y="320" as="targetPoint" />
            <mxPoint as="offset" />
          </mxGeometry>
        </mxCell>
        <mxCell id="grKQh754Aq8ZdUfQPDiJ-22" value="d11" style="endArrow=none;html=1;rounded=0;exitX=1;exitY=0.167;exitDx=0;exitDy=0;exitPerimeter=0;" edge="1" parent="1" source="grKQh754Aq8ZdUfQPDiJ-1">
          <mxGeometry y="10" width="50" height="50" relative="1" as="geometry">
            <mxPoint x="600" y="339.58" as="sourcePoint" />
            <mxPoint x="640" y="340" as="targetPoint" />
            <mxPoint as="offset" />
          </mxGeometry>
        </mxCell>
        <mxCell id="grKQh754Aq8ZdUfQPDiJ-23" value="d10" style="endArrow=none;html=1;rounded=0;exitX=1;exitY=0.223;exitDx=0;exitDy=0;exitPerimeter=0;" edge="1" parent="1" source="grKQh754Aq8ZdUfQPDiJ-1">
          <mxGeometry y="10" width="50" height="50" relative="1" as="geometry">
            <mxPoint x="600" y="359.58" as="sourcePoint" />
            <mxPoint x="640" y="360" as="targetPoint" />
            <mxPoint as="offset" />
          </mxGeometry>
        </mxCell>
        <mxCell id="grKQh754Aq8ZdUfQPDiJ-24" value="d9" style="endArrow=none;html=1;rounded=0;" edge="1" parent="1">
          <mxGeometry y="10" width="50" height="50" relative="1" as="geometry">
            <mxPoint x="600" y="379.58" as="sourcePoint" />
            <mxPoint x="640" y="380" as="targetPoint" />
            <mxPoint as="offset" />
          </mxGeometry>
        </mxCell>
        <mxCell id="grKQh754Aq8ZdUfQPDiJ-25" value="d8" style="endArrow=none;html=1;rounded=0;" edge="1" parent="1">
          <mxGeometry y="10" width="50" height="50" relative="1" as="geometry">
            <mxPoint x="600" y="399.58" as="sourcePoint" />
            <mxPoint x="640" y="400" as="targetPoint" />
            <mxPoint as="offset" />
          </mxGeometry>
        </mxCell>
        <mxCell id="grKQh754Aq8ZdUfQPDiJ-26" value="d7" style="endArrow=none;html=1;rounded=0;" edge="1" parent="1">
          <mxGeometry y="10" width="50" height="50" relative="1" as="geometry">
            <mxPoint x="600" y="419.58" as="sourcePoint" />
            <mxPoint x="640" y="420" as="targetPoint" />
            <mxPoint as="offset" />
          </mxGeometry>
        </mxCell>
        <mxCell id="grKQh754Aq8ZdUfQPDiJ-27" value="d6" style="endArrow=none;html=1;rounded=0;" edge="1" parent="1">
          <mxGeometry y="10" width="50" height="50" relative="1" as="geometry">
            <mxPoint x="600" y="439.58" as="sourcePoint" />
            <mxPoint x="640" y="440" as="targetPoint" />
            <mxPoint as="offset" />
          </mxGeometry>
        </mxCell>
        <mxCell id="grKQh754Aq8ZdUfQPDiJ-28" value="d5" style="endArrow=none;html=1;rounded=0;" edge="1" parent="1">
          <mxGeometry x="-0.8002" y="10" width="50" height="50" relative="1" as="geometry">
            <mxPoint x="600" y="459.58" as="sourcePoint" />
            <mxPoint x="800" y="460" as="targetPoint" />
            <mxPoint as="offset" />
          </mxGeometry>
        </mxCell>
        <mxCell id="grKQh754Aq8ZdUfQPDiJ-29" value="d4" style="endArrow=none;html=1;rounded=0;" edge="1" parent="1">
          <mxGeometry x="-0.7503" y="10" width="50" height="50" relative="1" as="geometry">
            <mxPoint x="600" y="479.58" as="sourcePoint" />
            <mxPoint x="760" y="480" as="targetPoint" />
            <mxPoint as="offset" />
          </mxGeometry>
        </mxCell>
        <mxCell id="grKQh754Aq8ZdUfQPDiJ-30" value="d3" style="endArrow=none;html=1;rounded=0;" edge="1" parent="1">
          <mxGeometry y="10" width="50" height="50" relative="1" as="geometry">
            <mxPoint x="600" y="499.58" as="sourcePoint" />
            <mxPoint x="640" y="500" as="targetPoint" />
            <mxPoint as="offset" />
          </mxGeometry>
        </mxCell>
        <mxCell id="grKQh754Aq8ZdUfQPDiJ-31" value="d2" style="endArrow=none;html=1;rounded=0;" edge="1" parent="1">
          <mxGeometry y="10" width="50" height="50" relative="1" as="geometry">
            <mxPoint x="600" y="519.58" as="sourcePoint" />
            <mxPoint x="640" y="520" as="targetPoint" />
            <mxPoint as="offset" />
          </mxGeometry>
        </mxCell>
        <mxCell id="grKQh754Aq8ZdUfQPDiJ-32" value="gnd" style="endArrow=none;html=1;rounded=0;" edge="1" parent="1">
          <mxGeometry y="10" width="50" height="50" relative="1" as="geometry">
            <mxPoint x="600" y="539.58" as="sourcePoint" />
            <mxPoint x="640" y="540" as="targetPoint" />
            <mxPoint as="offset" />
          </mxGeometry>
        </mxCell>
        <mxCell id="grKQh754Aq8ZdUfQPDiJ-33" value="rst" style="endArrow=none;html=1;rounded=0;" edge="1" parent="1">
          <mxGeometry y="10" width="50" height="50" relative="1" as="geometry">
            <mxPoint x="600" y="559.58" as="sourcePoint" />
            <mxPoint x="640" y="560" as="targetPoint" />
            <mxPoint as="offset" />
          </mxGeometry>
        </mxCell>
        <mxCell id="grKQh754Aq8ZdUfQPDiJ-34" value="d1" style="endArrow=none;html=1;rounded=0;" edge="1" parent="1">
          <mxGeometry x="-0.6672" y="10" width="50" height="50" relative="1" as="geometry">
            <mxPoint x="600" y="579.58" as="sourcePoint" />
            <mxPoint x="720" y="580" as="targetPoint" />
            <mxPoint as="offset" />
          </mxGeometry>
        </mxCell>
        <mxCell id="grKQh754Aq8ZdUfQPDiJ-35" value="d0" style="endArrow=none;html=1;rounded=0;" edge="1" parent="1">
          <mxGeometry x="-0.5013" y="10" width="50" height="50" relative="1" as="geometry">
            <mxPoint x="600" y="599.58" as="sourcePoint" />
            <mxPoint x="680" y="600" as="targetPoint" />
            <mxPoint as="offset" />
          </mxGeometry>
        </mxCell>
        <mxCell id="grKQh754Aq8ZdUfQPDiJ-149" value="" style="group;verticalAlign=top;" vertex="1" connectable="0" parent="1">
          <mxGeometry x="280" y="800" width="320" height="270" as="geometry" />
        </mxCell>
        <mxCell id="grKQh754Aq8ZdUfQPDiJ-150" value="&lt;h2&gt;lora ra-01&lt;/h2&gt;" style="rounded=0;whiteSpace=wrap;html=1;verticalAlign=top;" vertex="1" parent="grKQh754Aq8ZdUfQPDiJ-149">
          <mxGeometry x="40" width="240" height="270" as="geometry" />
        </mxCell>
        <mxCell id="grKQh754Aq8ZdUfQPDiJ-151" value="" style="endArrow=none;html=1;rounded=0;entryX=-0.003;entryY=0.065;entryDx=0;entryDy=0;entryPerimeter=0;" edge="1" parent="grKQh754Aq8ZdUfQPDiJ-149">
          <mxGeometry width="50" height="50" relative="1" as="geometry">
            <mxPoint x="-270" y="30" as="sourcePoint" />
            <mxPoint x="39" y="30" as="targetPoint" />
          </mxGeometry>
        </mxCell>
        <mxCell id="grKQh754Aq8ZdUfQPDiJ-152" value="ant" style="edgeLabel;html=1;align=center;verticalAlign=middle;resizable=0;points=[];" vertex="1" connectable="0" parent="grKQh754Aq8ZdUfQPDiJ-151">
          <mxGeometry x="0.1328" y="-2" relative="1" as="geometry">
            <mxPoint x="115" y="-15" as="offset" />
          </mxGeometry>
        </mxCell>
        <mxCell id="grKQh754Aq8ZdUfQPDiJ-153" value="" style="endArrow=none;html=1;rounded=0;entryX=-0.003;entryY=0.065;entryDx=0;entryDy=0;entryPerimeter=0;" edge="1" parent="grKQh754Aq8ZdUfQPDiJ-149">
          <mxGeometry width="50" height="50" relative="1" as="geometry">
            <mxPoint x="-80" y="60" as="sourcePoint" />
            <mxPoint x="39" y="60" as="targetPoint" />
          </mxGeometry>
        </mxCell>
        <mxCell id="grKQh754Aq8ZdUfQPDiJ-154" value="gnd" style="edgeLabel;html=1;align=center;verticalAlign=middle;resizable=0;points=[];" vertex="1" connectable="0" parent="grKQh754Aq8ZdUfQPDiJ-153">
          <mxGeometry x="0.3744" y="-1" relative="1" as="geometry">
            <mxPoint x="18" y="-11" as="offset" />
          </mxGeometry>
        </mxCell>
        <mxCell id="grKQh754Aq8ZdUfQPDiJ-155" value="" style="endArrow=none;html=1;rounded=0;entryX=-0.003;entryY=0.065;entryDx=0;entryDy=0;entryPerimeter=0;" edge="1" parent="grKQh754Aq8ZdUfQPDiJ-149">
          <mxGeometry width="50" height="50" relative="1" as="geometry">
            <mxPoint x="-120" y="90" as="sourcePoint" />
            <mxPoint x="39" y="90" as="targetPoint" />
          </mxGeometry>
        </mxCell>
        <mxCell id="grKQh754Aq8ZdUfQPDiJ-156" value="3.3v in" style="edgeLabel;html=1;align=center;verticalAlign=middle;resizable=0;points=[];" vertex="1" connectable="0" parent="grKQh754Aq8ZdUfQPDiJ-155">
          <mxGeometry x="0.3744" y="-1" relative="1" as="geometry">
            <mxPoint x="31" y="-11" as="offset" />
          </mxGeometry>
        </mxCell>
        <mxCell id="grKQh754Aq8ZdUfQPDiJ-157" value="" style="endArrow=none;html=1;rounded=0;entryX=-0.003;entryY=0.065;entryDx=0;entryDy=0;entryPerimeter=0;" edge="1" parent="grKQh754Aq8ZdUfQPDiJ-149">
          <mxGeometry width="50" height="50" relative="1" as="geometry">
            <mxPoint y="120" as="sourcePoint" />
            <mxPoint x="39" y="120" as="targetPoint" />
          </mxGeometry>
        </mxCell>
        <mxCell id="grKQh754Aq8ZdUfQPDiJ-158" value="rst" style="edgeLabel;html=1;align=center;verticalAlign=middle;resizable=0;points=[];" vertex="1" connectable="0" parent="grKQh754Aq8ZdUfQPDiJ-157">
          <mxGeometry x="0.3744" y="-1" relative="1" as="geometry">
            <mxPoint x="-7" y="-11" as="offset" />
          </mxGeometry>
        </mxCell>
        <mxCell id="grKQh754Aq8ZdUfQPDiJ-159" value="" style="endArrow=none;html=1;rounded=0;entryX=-0.003;entryY=0.065;entryDx=0;entryDy=0;entryPerimeter=0;" edge="1" parent="grKQh754Aq8ZdUfQPDiJ-149">
          <mxGeometry width="50" height="50" relative="1" as="geometry">
            <mxPoint y="150" as="sourcePoint" />
            <mxPoint x="39" y="150" as="targetPoint" />
          </mxGeometry>
        </mxCell>
        <mxCell id="grKQh754Aq8ZdUfQPDiJ-160" value="dio0" style="edgeLabel;html=1;align=center;verticalAlign=middle;resizable=0;points=[];" vertex="1" connectable="0" parent="grKQh754Aq8ZdUfQPDiJ-159">
          <mxGeometry x="0.3744" y="-1" relative="1" as="geometry">
            <mxPoint x="-7" y="-11" as="offset" />
          </mxGeometry>
        </mxCell>
        <mxCell id="grKQh754Aq8ZdUfQPDiJ-161" value="" style="endArrow=none;html=1;rounded=0;entryX=-0.003;entryY=0.065;entryDx=0;entryDy=0;entryPerimeter=0;" edge="1" parent="grKQh754Aq8ZdUfQPDiJ-149">
          <mxGeometry width="50" height="50" relative="1" as="geometry">
            <mxPoint x="1" y="180" as="sourcePoint" />
            <mxPoint x="40" y="180" as="targetPoint" />
          </mxGeometry>
        </mxCell>
        <mxCell id="grKQh754Aq8ZdUfQPDiJ-162" value="dio1" style="edgeLabel;html=1;align=center;verticalAlign=middle;resizable=0;points=[];" vertex="1" connectable="0" parent="grKQh754Aq8ZdUfQPDiJ-161">
          <mxGeometry x="0.3744" y="-1" relative="1" as="geometry">
            <mxPoint x="-7" y="-11" as="offset" />
          </mxGeometry>
        </mxCell>
        <mxCell id="grKQh754Aq8ZdUfQPDiJ-163" value="" style="endArrow=none;html=1;rounded=0;entryX=-0.003;entryY=0.065;entryDx=0;entryDy=0;entryPerimeter=0;" edge="1" parent="grKQh754Aq8ZdUfQPDiJ-149">
          <mxGeometry width="50" height="50" relative="1" as="geometry">
            <mxPoint y="210" as="sourcePoint" />
            <mxPoint x="39" y="210" as="targetPoint" />
          </mxGeometry>
        </mxCell>
        <mxCell id="grKQh754Aq8ZdUfQPDiJ-164" value="dio2" style="edgeLabel;html=1;align=center;verticalAlign=middle;resizable=0;points=[];" vertex="1" connectable="0" parent="grKQh754Aq8ZdUfQPDiJ-163">
          <mxGeometry x="0.3744" y="-1" relative="1" as="geometry">
            <mxPoint x="-7" y="-11" as="offset" />
          </mxGeometry>
        </mxCell>
        <mxCell id="grKQh754Aq8ZdUfQPDiJ-165" value="" style="endArrow=none;html=1;rounded=0;entryX=-0.003;entryY=0.065;entryDx=0;entryDy=0;entryPerimeter=0;" edge="1" parent="grKQh754Aq8ZdUfQPDiJ-149">
          <mxGeometry width="50" height="50" relative="1" as="geometry">
            <mxPoint y="240" as="sourcePoint" />
            <mxPoint x="39" y="240" as="targetPoint" />
          </mxGeometry>
        </mxCell>
        <mxCell id="grKQh754Aq8ZdUfQPDiJ-166" value="dio3" style="edgeLabel;html=1;align=center;verticalAlign=middle;resizable=0;points=[];" vertex="1" connectable="0" parent="grKQh754Aq8ZdUfQPDiJ-165">
          <mxGeometry x="0.3744" y="-1" relative="1" as="geometry">
            <mxPoint x="-7" y="-11" as="offset" />
          </mxGeometry>
        </mxCell>
        <mxCell id="grKQh754Aq8ZdUfQPDiJ-167" value="" style="endArrow=none;html=1;rounded=0;entryX=-0.003;entryY=0.065;entryDx=0;entryDy=0;entryPerimeter=0;" edge="1" parent="grKQh754Aq8ZdUfQPDiJ-149">
          <mxGeometry width="50" height="50" relative="1" as="geometry">
            <mxPoint x="280" y="29.80000000000001" as="sourcePoint" />
            <mxPoint x="319" y="29.80000000000001" as="targetPoint" />
          </mxGeometry>
        </mxCell>
        <mxCell id="grKQh754Aq8ZdUfQPDiJ-168" value="gnd" style="edgeLabel;html=1;align=center;verticalAlign=middle;resizable=0;points=[];" vertex="1" connectable="0" parent="grKQh754Aq8ZdUfQPDiJ-167">
          <mxGeometry x="0.1328" y="-2" relative="1" as="geometry">
            <mxPoint y="-15" as="offset" />
          </mxGeometry>
        </mxCell>
        <mxCell id="grKQh754Aq8ZdUfQPDiJ-169" value="" style="endArrow=none;html=1;rounded=0;" edge="1" parent="grKQh754Aq8ZdUfQPDiJ-149">
          <mxGeometry width="50" height="50" relative="1" as="geometry">
            <mxPoint x="280" y="59.80000000000001" as="sourcePoint" />
            <mxPoint x="400" y="60" as="targetPoint" />
          </mxGeometry>
        </mxCell>
        <mxCell id="grKQh754Aq8ZdUfQPDiJ-170" value="nss" style="edgeLabel;html=1;align=center;verticalAlign=middle;resizable=0;points=[];" vertex="1" connectable="0" parent="grKQh754Aq8ZdUfQPDiJ-169">
          <mxGeometry x="0.3744" y="-1" relative="1" as="geometry">
            <mxPoint x="-62" y="-11" as="offset" />
          </mxGeometry>
        </mxCell>
        <mxCell id="grKQh754Aq8ZdUfQPDiJ-171" value="" style="endArrow=none;html=1;rounded=0;" edge="1" parent="grKQh754Aq8ZdUfQPDiJ-149">
          <mxGeometry width="50" height="50" relative="1" as="geometry">
            <mxPoint x="280" y="89.79999999999995" as="sourcePoint" />
            <mxPoint x="440" y="90" as="targetPoint" />
          </mxGeometry>
        </mxCell>
        <mxCell id="grKQh754Aq8ZdUfQPDiJ-172" value="mosi" style="edgeLabel;html=1;align=center;verticalAlign=middle;resizable=0;points=[];" vertex="1" connectable="0" parent="grKQh754Aq8ZdUfQPDiJ-171">
          <mxGeometry x="0.3744" y="-1" relative="1" as="geometry">
            <mxPoint x="-90" y="-11" as="offset" />
          </mxGeometry>
        </mxCell>
        <mxCell id="grKQh754Aq8ZdUfQPDiJ-173" value="" style="endArrow=none;html=1;rounded=0;" edge="1" parent="grKQh754Aq8ZdUfQPDiJ-149">
          <mxGeometry width="50" height="50" relative="1" as="geometry">
            <mxPoint x="280" y="119.79999999999995" as="sourcePoint" />
            <mxPoint x="480" y="120" as="targetPoint" />
          </mxGeometry>
        </mxCell>
        <mxCell id="grKQh754Aq8ZdUfQPDiJ-174" value="miso" style="edgeLabel;html=1;align=center;verticalAlign=middle;resizable=0;points=[];" vertex="1" connectable="0" parent="grKQh754Aq8ZdUfQPDiJ-173">
          <mxGeometry x="0.3744" y="-1" relative="1" as="geometry">
            <mxPoint x="-117" y="-11" as="offset" />
          </mxGeometry>
        </mxCell>
        <mxCell id="grKQh754Aq8ZdUfQPDiJ-175" value="" style="endArrow=none;html=1;rounded=0;" edge="1" parent="grKQh754Aq8ZdUfQPDiJ-149">
          <mxGeometry width="50" height="50" relative="1" as="geometry">
            <mxPoint x="280" y="149.79999999999995" as="sourcePoint" />
            <mxPoint x="520" y="150" as="targetPoint" />
          </mxGeometry>
        </mxCell>
        <mxCell id="grKQh754Aq8ZdUfQPDiJ-176" value="sck" style="edgeLabel;html=1;align=center;verticalAlign=middle;resizable=0;points=[];" vertex="1" connectable="0" parent="grKQh754Aq8ZdUfQPDiJ-175">
          <mxGeometry x="0.3744" y="-1" relative="1" as="geometry">
            <mxPoint x="-145" y="-11" as="offset" />
          </mxGeometry>
        </mxCell>
        <mxCell id="grKQh754Aq8ZdUfQPDiJ-177" value="" style="endArrow=none;html=1;rounded=0;entryX=-0.003;entryY=0.065;entryDx=0;entryDy=0;entryPerimeter=0;" edge="1" parent="grKQh754Aq8ZdUfQPDiJ-149">
          <mxGeometry width="50" height="50" relative="1" as="geometry">
            <mxPoint x="281" y="179.79999999999995" as="sourcePoint" />
            <mxPoint x="320" y="179.79999999999995" as="targetPoint" />
          </mxGeometry>
        </mxCell>
        <mxCell id="grKQh754Aq8ZdUfQPDiJ-178" value="dio5" style="edgeLabel;html=1;align=center;verticalAlign=middle;resizable=0;points=[];" vertex="1" connectable="0" parent="grKQh754Aq8ZdUfQPDiJ-177">
          <mxGeometry x="0.3744" y="-1" relative="1" as="geometry">
            <mxPoint x="-7" y="-11" as="offset" />
          </mxGeometry>
        </mxCell>
        <mxCell id="grKQh754Aq8ZdUfQPDiJ-179" value="" style="endArrow=none;html=1;rounded=0;entryX=-0.003;entryY=0.065;entryDx=0;entryDy=0;entryPerimeter=0;" edge="1" parent="grKQh754Aq8ZdUfQPDiJ-149">
          <mxGeometry width="50" height="50" relative="1" as="geometry">
            <mxPoint x="280" y="209.79999999999995" as="sourcePoint" />
            <mxPoint x="319" y="209.79999999999995" as="targetPoint" />
          </mxGeometry>
        </mxCell>
        <mxCell id="grKQh754Aq8ZdUfQPDiJ-180" value="dio4" style="edgeLabel;html=1;align=center;verticalAlign=middle;resizable=0;points=[];" vertex="1" connectable="0" parent="grKQh754Aq8ZdUfQPDiJ-179">
          <mxGeometry x="0.3744" y="-1" relative="1" as="geometry">
            <mxPoint x="-7" y="-11" as="offset" />
          </mxGeometry>
        </mxCell>
        <mxCell id="grKQh754Aq8ZdUfQPDiJ-181" value="" style="endArrow=none;html=1;rounded=0;entryX=-0.003;entryY=0.065;entryDx=0;entryDy=0;entryPerimeter=0;" edge="1" parent="grKQh754Aq8ZdUfQPDiJ-149">
          <mxGeometry width="50" height="50" relative="1" as="geometry">
            <mxPoint x="280" y="239.79999999999995" as="sourcePoint" />
            <mxPoint x="319" y="239.79999999999995" as="targetPoint" />
          </mxGeometry>
        </mxCell>
        <mxCell id="grKQh754Aq8ZdUfQPDiJ-182" value="gnd" style="edgeLabel;html=1;align=center;verticalAlign=middle;resizable=0;points=[];" vertex="1" connectable="0" parent="grKQh754Aq8ZdUfQPDiJ-181">
          <mxGeometry x="0.3744" y="-1" relative="1" as="geometry">
            <mxPoint x="-7" y="-11" as="offset" />
          </mxGeometry>
        </mxCell>
        <mxCell id="grKQh754Aq8ZdUfQPDiJ-190" value="433 mhz helical spring antenna" style="shape=mxgraph.cisco.wireless.antenna;html=1;pointerEvents=1;dashed=0;fillColor=#036897;strokeColor=#ffffff;strokeWidth=2;verticalLabelPosition=bottom;verticalAlign=top;align=center;outlineConnect=0;" vertex="1" parent="1">
          <mxGeometry x="-40" y="680" width="88" height="104" as="geometry" />
        </mxCell>
        <mxCell id="grKQh754Aq8ZdUfQPDiJ-196" value="" style="endArrow=none;html=1;rounded=0;entryX=0.54;entryY=1;entryDx=0;entryDy=0;entryPerimeter=0;" edge="1" parent="1">
          <mxGeometry width="50" height="50" relative="1" as="geometry">
            <mxPoint x="10.480000000000004" y="830" as="sourcePoint" />
            <mxPoint x="9.999999999999986" y="784" as="targetPoint" />
          </mxGeometry>
        </mxCell>
        <mxCell id="grKQh754Aq8ZdUfQPDiJ-200" value="" style="endArrow=none;html=1;rounded=0;" edge="1" parent="1">
          <mxGeometry width="50" height="50" relative="1" as="geometry">
            <mxPoint x="200" y="860" as="sourcePoint" />
            <mxPoint x="200" y="600" as="targetPoint" />
          </mxGeometry>
        </mxCell>
        <mxCell id="grKQh754Aq8ZdUfQPDiJ-201" value="" style="shape=flexArrow;endArrow=classic;html=1;rounded=0;exitX=0.5;exitY=1;exitDx=0;exitDy=0;" edge="1" parent="1" source="grKQh754Aq8ZdUfQPDiJ-150">
          <mxGeometry width="50" height="50" relative="1" as="geometry">
            <mxPoint x="430" y="1140" as="sourcePoint" />
            <mxPoint x="440" y="1120" as="targetPoint" />
          </mxGeometry>
        </mxCell>
        <mxCell id="grKQh754Aq8ZdUfQPDiJ-202" value="" style="endArrow=none;html=1;rounded=0;" edge="1" parent="1">
          <mxGeometry width="50" height="50" relative="1" as="geometry">
            <mxPoint x="680" y="860" as="sourcePoint" />
            <mxPoint x="680" y="600" as="targetPoint" />
          </mxGeometry>
        </mxCell>
        <mxCell id="grKQh754Aq8ZdUfQPDiJ-203" value="" style="endArrow=none;html=1;rounded=0;" edge="1" parent="1">
          <mxGeometry width="50" height="50" relative="1" as="geometry">
            <mxPoint x="720" y="890" as="sourcePoint" />
            <mxPoint x="720" y="580" as="targetPoint" />
          </mxGeometry>
        </mxCell>
        <mxCell id="grKQh754Aq8ZdUfQPDiJ-204" value="" style="endArrow=none;html=1;rounded=0;" edge="1" parent="1">
          <mxGeometry width="50" height="50" relative="1" as="geometry">
            <mxPoint x="760" y="920" as="sourcePoint" />
            <mxPoint x="760" y="480" as="targetPoint" />
          </mxGeometry>
        </mxCell>
        <mxCell id="grKQh754Aq8ZdUfQPDiJ-205" value="" style="endArrow=none;html=1;rounded=0;" edge="1" parent="1">
          <mxGeometry width="50" height="50" relative="1" as="geometry">
            <mxPoint x="800" y="950" as="sourcePoint" />
            <mxPoint x="800" y="460" as="targetPoint" />
          </mxGeometry>
        </mxCell>
        <mxCell id="grKQh754Aq8ZdUfQPDiJ-206" value="" style="endArrow=none;html=1;rounded=0;" edge="1" parent="1">
          <mxGeometry width="50" height="50" relative="1" as="geometry">
            <mxPoint x="160" y="890" as="sourcePoint" />
            <mxPoint x="160" y="340" as="targetPoint" />
          </mxGeometry>
        </mxCell>
      </root>
    </mxGraphModel>
  </diagram>
</mxfile>
